<svg xmlns="http://www.w3.org/2000/svg" viewBox="0 0 100 100">
  <defs>
    <linearGradient id="polishGrad" x1="0%" y1="100%" x2="100%" y2="0%">
      <stop offset="0%" stop-color="#00E5FF"/>
      <stop offset="100%" stop-color="#0088FF"/>
    </linearGradient>
  </defs>
  <rect width="100" height="100" rx="20" fill="#0B0C0E"/>
  <path d="M 32 72 L 28 68 C 26 66 26 62 28 60 L 52 36 L 46 36 C 44 36 42 34 42 32 C 42 30 44 28 46 28 L 68 28 C 70 28 72 30 72 32 L 72 54 C 72 56 70 58 68 58 C 66 58 64 56 64 54 L 64 48 L 40 72 C 38 74 34 74 32 72 Z" fill="url(#polishGrad)"/>
  <rect x="22" y="74" width="8" height="8" rx="2" transform="rotate(45 26 78)" fill="#00E5FF"/>
</svg>
