<?xml version="1.0" encoding="UTF-8"?>
<svg xmlns="http://www.w3.org/2000/svg" viewBox="0 0 100 100" width="500" height="500">
  
  <defs>
    <!-- Primary Haute Champagne Gold Gradient -->
    <linearGradient id="goldGrad1" x1="0%" y1="100%" x2="100%" y2="0%">
      <stop offset="0%" stop-color="#C5A880"/>
      <stop offset="35%" stop-color="#E2C799"/>
      <stop offset="70%" stop-color="#F5E6D3"/>
      <stop offset="100%" stop-color="#E2C799"/>
    </linearGradient>

    <!-- Specular Highlight Sheen Gradient -->
    <linearGradient id="goldGradSheen" x1="0%" y1="0%" x2="100%" y2="100%">
      <stop offset="0%" stop-color="#FFFFFF" stop-opacity="0.95"/>
      <stop offset="25%" stop-color="#F5E6D3"/>
      <stop offset="70%" stop-color="#E2C799"/>
      <stop offset="100%" stop-color="#A88B60"/>
    </linearGradient>

    <!-- Deep Atelier Bronze for Shading / Under-ribbon -->
    <linearGradient id="bronzeShade" x1="0%" y1="0%" x2="100%" y2="100%">
      <stop offset="0%" stop-color="#A88B60"/>
      <stop offset="50%" stop-color="#806742"/>
      <stop offset="100%" stop-color="#544328"/>
    </linearGradient>

    <!-- Multi-Angle Facet Gradients for Concept 3 -->
    <linearGradient id="facetTop" x1="0%" y1="0%" x2="100%" y2="100%">
      <stop offset="0%" stop-color="#FFFFFF"/>
      <stop offset="100%" stop-color="#E2C799"/>
    </linearGradient>
    <linearGradient id="facetLeft" x1="0%" y1="0%" x2="100%" y2="100%">
      <stop offset="0%" stop-color="#E2C799"/>
      <stop offset="100%" stop-color="#9C7F56"/>
    </linearGradient>
    <linearGradient id="facetRight" x1="0%" y1="0%" x2="100%" y2="100%">
      <stop offset="0%" stop-color="#F5E6D3"/>
      <stop offset="100%" stop-color="#C5A880"/>
    </linearGradient>
    <linearGradient id="facetCenter" x1="0%" y1="0%" x2="0%" y2="100%">
      <stop offset="0%" stop-color="#FBF3E8"/>
      <stop offset="50%" stop-color="#E2C799"/>
      <stop offset="100%" stop-color="#B89668"/>
    </linearGradient>

    <!-- Obsidian Surface Gradient -->
    <linearGradient id="obsidianSurface" x1="0%" y1="0%" x2="100%" y2="100%">
      <stop offset="0%" stop-color="#161412"/>
      <stop offset="100%" stop-color="#080706"/>
    </linearGradient>

    <!-- Fonts -->
    <style>
      @import url('https://fonts.googleapis.com/css2?family=Plus+Jakarta+Sans:wght@700;800&amp;family=Cormorant+Garamond:ital,wght@1,600&amp;display=swap');
      .brand-title { font-family: 'Plus Jakarta Sans', sans-serif; font-weight: 800; }
      .brand-sub { font-family: 'Plus Jakarta Sans', sans-serif; font-weight: 600; }
    </style>
  </defs>

  
  
    <!-- Concept 2: The Maison 'P' Crest -->
    <g id="mark-c2">
      <!-- Architectural Monogram 'P' with 45° Velocity Apex -->
      <path d="M 26 78 
               L 26 44 
               C 26 42 27 40 29 38 
               L 56 16 
               C 58 14 62 15 63 18 
               L 64 26 
               C 66 26 70 27 74 30 
               C 80 35 83 43 82 51 
               C 81 59 75 66 66 68 
               C 62 69 58 69 54 69 
               L 36 69 
               L 36 78 
               C 36 81 33 83 31 83 
               C 28 83 26 81 26 78 Z 
               M 36 34 
               L 36 59 
               L 54 59 
               C 60 59 65 57 69 53 
               C 72 49 72 43 70 39 
               C 67 35 63 33 58 33 
               L 42 33 
               C 39 33 37 33 36 34 Z" 
            fill="url(#goldGrad1)" fill-rule="evenodd"/>
      
      <!-- Suspended Faceted Diamond Droplet in Counter-Space -->
      <g transform="translate(52, 46)">
        <polygon points="0,-9 7,0 0,9 -7,0" fill="url(#goldGradSheen)"/>
        <!-- Inner Specular Core -->
        <polygon points="0,-4 3,0 0,4 -3,0" fill="#FFFFFF" opacity="0.9"/>
      </g>
    </g>
  
</svg>