<?xml version="1.0" encoding="UTF-8"?>
<svg xmlns="http://www.w3.org/2000/svg" viewBox="0 0 1500 500" width="1500" height="500">
  
  <defs>
    <linearGradient id="champagneGoldGrad" x1="0%" y1="100%" x2="100%" y2="0%">
      <stop offset="0%" stop-color="#C5A880"/>
      <stop offset="45%" stop-color="#E2C799"/>
      <stop offset="70%" stop-color="#F5E6D3"/>
      <stop offset="100%" stop-color="#E2C799"/>
    </linearGradient>
    <linearGradient id="champagneGoldSubtle" x1="0%" y1="0%" x2="100%" y2="100%">
      <stop offset="0%" stop-color="#F5E6D3" stop-opacity="0.9"/>
      <stop offset="100%" stop-color="#C5A880" stop-opacity="0.9"/>
    </linearGradient>
    <linearGradient id="obsidianSurface" x1="0%" y1="0%" x2="100%" y2="100%">
      <stop offset="0%" stop-color="#181614"/>
      <stop offset="100%" stop-color="#080706"/>
    </linearGradient>
    <filter id="subtleGlow" x="-20%" y="-20%" width="140%" height="140%">
      <feGaussianBlur stdDeviation="3" result="blur"/>
      <feComposite in="SourceGraphic" in2="blur" operator="over"/>
    </filter>
    <style>
      @import url('https://fonts.googleapis.com/css2?family=Plus+Jakarta+Sans:wght@600;700;800&amp;family=Cormorant+Garamond:ital,wght@1,600&amp;display=swap');
      .font-brand-title { font-family: 'Plus Jakarta Sans', -apple-system, BlinkMacSystemFont, 'Segoe UI', Roboto, sans-serif; font-weight: 800; }
      .font-brand-sub { font-family: 'Plus Jakarta Sans', -apple-system, BlinkMacSystemFont, 'Segoe UI', Roboto, sans-serif; font-weight: 600; }
      .font-serif-luxury { font-family: 'Cormorant Garamond', Didot, 'Playfair Display', Georgia, serif; font-style: italic; }
    </style>
  </defs>

  <!-- Obsidian Base Background -->
  <rect width="1500" height="500" fill="#080706"/>
  
  <!-- Subtle Radial Luxury Ambient Glows -->
  <circle cx="250" cy="250" r="320" fill="#E2C799" opacity="0.04" filter="blur(60px)"/>
  <circle cx="1250" cy="150" r="380" fill="#C5A880" opacity="0.03" filter="blur(80px)"/>
  
  <!-- Architectural Grid Lines (Beveled Luxury Specular) -->
  <line x1="80" y1="0" x2="80" y2="500" stroke="rgba(226, 199, 153, 0.08)" stroke-width="1"/>
  <line x1="1420" y1="0" x2="1420" y2="500" stroke="rgba(226, 199, 153, 0.08)" stroke-width="1"/>
  <line x1="0" y1="440" x2="1500" y2="440" stroke="rgba(226, 199, 153, 0.08)" stroke-width="1"/>
  
  <!-- Left Decorative Mark Watermark -->
  <g transform="translate(1300, 260) scale(4.5) translate(-50, -50)" opacity="0.06">
    
    <g transform="translate(3.5, -5.5)">
      <!-- Upward Kinetic Chevron with Golden Ratio Taper -->
      <path d="M 34 68 
               C 30 64 30 58 34 54 
               L 56 32 
               L 48 32 
               C 45 32 43 30 43 27 
               C 43 24 45 22 48 22 
               L 75 22 
               C 77 22 79 24 79 26 
               L 79 53 
               C 79 56 77 58 74 58 
               C 71 58 69 56 69 53 
               L 69 45 
               L 47 68 
               C 43 72 38 72 34 68 Z" 
            fill="url(#champagneGoldGrad)"/>
      
      <!-- Optically Locked Cosmetic Droplet with Facet Angle -->
      <path d="M 24 72 
               C 27 75 29 79 28 83 
               C 27 87 23 89 19 88 
               C 15 87 13 83 14 79 
               C 15 75 21 69 24 72 Z" 
            fill="url(#champagneGoldGrad)" opacity="0.95"/>
      <!-- Inner Diamond Droplet Core -->
      <rect x="18.5" y="77.5" width="5.5" height="5.5" rx="1.2" transform="rotate(45 21.25 80.25)" fill="#F5E6D3"/>
    </g>
  
  </g>
  
  <!-- Brand Monogram in Frosted Squircle -->
  <g transform="translate(180, 210) scale(1.1) translate(-50, -50)">
    <rect x="0" y="0" width="100" height="100" rx="26" fill="#141210" stroke="rgba(226, 199, 153, 0.3)" stroke-width="1.5"/>
    <g transform="translate(50, 50) scale(0.9) translate(-50, -50)">
      
    <g transform="translate(3.5, -5.5)">
      <!-- Upward Kinetic Chevron with Golden Ratio Taper -->
      <path d="M 34 68 
               C 30 64 30 58 34 54 
               L 56 32 
               L 48 32 
               C 45 32 43 30 43 27 
               C 43 24 45 22 48 22 
               L 75 22 
               C 77 22 79 24 79 26 
               L 79 53 
               C 79 56 77 58 74 58 
               C 71 58 69 56 69 53 
               L 69 45 
               L 47 68 
               C 43 72 38 72 34 68 Z" 
            fill="url(#champagneGoldGrad)"/>
      
      <!-- Optically Locked Cosmetic Droplet with Facet Angle -->
      <path d="M 24 72 
               C 27 75 29 79 28 83 
               C 27 87 23 89 19 88 
               C 15 87 13 83 14 79 
               C 15 75 21 69 24 72 Z" 
            fill="url(#champagneGoldGrad)" opacity="0.95"/>
      <!-- Inner Diamond Droplet Core -->
      <rect x="18.5" y="77.5" width="5.5" height="5.5" rx="1.2" transform="rotate(45 21.25 80.25)" fill="#F5E6D3"/>
    </g>
  
    </g>
  </g>

  <!-- Typography Content -->
  <!-- Eyebrow -->
  <text x="320" y="180" class="font-brand-sub" font-size="13" letter-spacing="6" fill="#C5A880">THE HAUTE ATELIER OF COSMETIC GROWTH</text>
  
  <!-- Main Title -->
  <text x="320" y="240" class="font-brand-title" font-size="52" letter-spacing="6" fill="url(#champagneGoldGrad)">POLISH <tspan font-size="28" letter-spacing="8" fill="#F5E6D3">MEDIA CO.</tspan></text>
  
  <!-- Editorial Tagline with Cormorant Italic -->
  <text x="320" y="295" class="font-serif-luxury" font-size="24" fill="#F5E6D3">Haute Parfumerie, Clinical Formulations &amp; Algorithmic DTC Scaling.</text>
  
  <!-- Key Metros Bar -->
  <text x="320" y="350" class="font-brand-sub" font-size="12" letter-spacing="5" fill="rgba(245, 230, 211, 0.5)">PARIS  •  NEW YORK  •  DUBAI  •  TOKYO  •  ZÜRICH</text>

  <!-- High-Ticket Credential Pill -->
  <rect x="1100" y="200" width="260" height="70" rx="35" fill="rgba(20, 18, 16, 0.8)" stroke="rgba(226, 199, 153, 0.25)" stroke-width="1"/>
  <text x="1230" y="232" class="font-brand-title" font-size="18" text-anchor="middle" fill="#E2C799">$85M+ SCALED</text>
  <text x="1230" y="254" class="font-brand-sub" font-size="10" letter-spacing="2" text-anchor="middle" fill="rgba(245, 230, 211, 0.6)">PRESTIGE BEAUTY DTC</text>
</svg>