<?xml version="1.0" encoding="UTF-8"?>
<svg xmlns="http://www.w3.org/2000/svg" viewBox="0 0 600 520" width="600" height="520">
  
  <defs>
    <linearGradient id="champagneGoldGrad" x1="0%" y1="100%" x2="100%" y2="0%">
      <stop offset="0%" stop-color="#C5A880"/>
      <stop offset="45%" stop-color="#E2C799"/>
      <stop offset="70%" stop-color="#F5E6D3"/>
      <stop offset="100%" stop-color="#E2C799"/>
    </linearGradient>
    <linearGradient id="champagneGoldSubtle" x1="0%" y1="0%" x2="100%" y2="100%">
      <stop offset="0%" stop-color="#F5E6D3" stop-opacity="0.9"/>
      <stop offset="100%" stop-color="#C5A880" stop-opacity="0.9"/>
    </linearGradient>
    <linearGradient id="obsidianSurface" x1="0%" y1="0%" x2="100%" y2="100%">
      <stop offset="0%" stop-color="#181614"/>
      <stop offset="100%" stop-color="#080706"/>
    </linearGradient>
    <filter id="subtleGlow" x="-20%" y="-20%" width="140%" height="140%">
      <feGaussianBlur stdDeviation="3" result="blur"/>
      <feComposite in="SourceGraphic" in2="blur" operator="over"/>
    </filter>
    <style>
      @import url('https://fonts.googleapis.com/css2?family=Plus+Jakarta+Sans:wght@600;700;800&amp;family=Cormorant+Garamond:ital,wght@1,600&amp;display=swap');
      .font-brand-title { font-family: 'Plus Jakarta Sans', -apple-system, BlinkMacSystemFont, 'Segoe UI', Roboto, sans-serif; font-weight: 800; }
      .font-brand-sub { font-family: 'Plus Jakarta Sans', -apple-system, BlinkMacSystemFont, 'Segoe UI', Roboto, sans-serif; font-weight: 600; }
      .font-serif-luxury { font-family: 'Cormorant Garamond', Didot, 'Playfair Display', Georgia, serif; font-style: italic; }
    </style>
  </defs>

  
  <!-- Centered Mark -->
  <g transform="translate(300, 150) scale(2.3) translate(-50, -50)">
    
    <g transform="translate(3.83, -5.83)">
      <!-- Growth Arrow Stem & Head (45deg upward velocity) -->
      <path d="M 32 72 L 28 68 C 26 66 26 62 28 60 L 52 36 L 46 36 C 44 36 42 34 42 32 C 42 30 44 28 46 28 L 68 28 C 70 28 72 30 72 32 L 72 54 C 72 56 70 58 68 58 C 66 58 64 56 64 54 L 64 48 L 40 72 C 38 74 34 74 32 72 Z" fill="url(#champagneGoldGrad)"/>
      <!-- Cosmetic Dropper & Diamond Facet -->
      <rect x="22" y="74" width="8" height="8" rx="2" transform="rotate(45 26 78)" fill="url(#champagneGoldGrad)"/>
    </g>
  
  </g>
  <!-- Architectural Wordmark POLISH -->
  <text x="300" y="375" 
        class="font-brand-title"
        font-size="78" 
        letter-spacing="12" 
        text-anchor="middle"
        fill="url(#champagneGoldGrad)">POLISH</text>
  <!-- Subtitle MEDIA CO -->
  <text x="300" y="435" 
        class="font-brand-sub"
        font-size="16" 
        letter-spacing="12" 
        text-anchor="middle"
        fill="#C5A880">MEDIA CO</text>
</svg>